<svg xmlns="http://www.w3.org/2000/svg" width="1200" height="360" viewBox="0 0 1200 360">

    <defs>
      <linearGradient id="gRainbow" x1="0" y1="0" x2="1" y2="1">
        <stop offset="0%" stop-color="#3FD0FF"/>
        <stop offset="22%" stop-color="#38F5B3"/>
        <stop offset="45%" stop-color="#F9F871"/>
        <stop offset="68%" stop-color="#FFB84D"/>
        <stop offset="100%" stop-color="#FF74D4"/>
      </linearGradient>
      <linearGradient id="gHot" x1="0" y1="0" x2="1" y2="1">
        <stop offset="0%" stop-color="#FFB84D"/>
        <stop offset="50%" stop-color="#FF5A7A"/>
        <stop offset="100%" stop-color="#FF74D4"/>
      </linearGradient>
      <linearGradient id="gCool" x1="0" y1="0" x2="1" y2="1">
        <stop offset="0%" stop-color="#3FD0FF"/>
        <stop offset="50%" stop-color="#4D7CFF"/>
        <stop offset="100%" stop-color="#8D6BFF"/>
      </linearGradient>
      <linearGradient id="gMint" x1="0" y1="0" x2="1" y2="1">
        <stop offset="0%" stop-color="#38F5B3"/>
        <stop offset="100%" stop-color="#3FD0FF"/>
      </linearGradient>
      <filter id="shadow" x="-50%" y="-50%" width="200%" height="200%">
        <feDropShadow dx="0" dy="20" stdDeviation="18" flood-color="#000000" flood-opacity="0.18"/>
      </filter>
      <filter id="soft" x="-50%" y="-50%" width="200%" height="200%">
        <feGaussianBlur stdDeviation="10" result="blur"/>
        <feColorMatrix in="blur" type="matrix" values="1 0 0 0 0  0 1 0 0 0  0 0 1 0 0  0 0 0 .45 0"/>
        <feMerge><feMergeNode/><feMergeNode in="SourceGraphic"/></feMerge>
      </filter>
      
    </defs>


<g transform="translate(66 46) scale(.56)">
<rect x="42" y="42" width="428" height="428" rx="120" fill="url(#gCool)" filter="url(#shadow)"/>
<circle cx="256" cy="256" r="146" fill="#fff" opacity="0.96"/>
<rect x="166" y="204" width="180" height="142" rx="58" fill="#101629"/>
<circle cx="218" cy="268" r="16" fill="#3FD0FF"/>
<circle cx="294" cy="268" r="16" fill="#38F5B3"/>
<path d="M220 310 C242 327 276 327 298 310" fill="none" stroke="#fff" stroke-width="16" stroke-linecap="round"/>
<path d="M256 185 L256 151" stroke="#101629" stroke-width="22" stroke-linecap="round"/>
<circle cx="256" cy="139" r="21" fill="#F9F871" stroke="#fff" stroke-width="8"/>
<path d="M368 137 l13 30 31 4 -24 21 7 31 -27 -16 -27 16 7 -31 -24 -21 31 -4z" fill="#FFB84D" stroke="#fff" stroke-width="8"/>
</g>
<text x="360" y="178" font-family="DejaVu Sans, Inter, Arial, sans-serif" font-size="92" font-weight="800" fill="#101629" letter-spacing="-3">sidekick</text>
<path d="M855 93 l13 30 32 4 -24 22 7 31 -28 -17 -28 17 7 -31 -24 -22 32 -4z" fill="#FFB84D"/>
<text x="365" y="241" font-family="DejaVu Sans, Inter, Arial, sans-serif" font-size="34" font-weight="600" fill="#596170" letter-spacing="1">friendly autonomous browsing agent</text>

</svg>